PathFileType	4	(X/Y/Z)	/Users/niels/Desktop/University/Third Semester/Perception and Action/Exam/Gymnastics Motion Tracking/Code for Gym Tracking/Analyzed Data/Webcam_Backflip/id7_3_baseline_Sports2D/id7_3_baseline_Sports2D_px_person00.trc
DataRate	CameraRate	NumFrames	NumMarkers	Units	OrigDataRate	OrigDataStartFrame	OrigNumFrames
29.810126582278482	29.810126582278482	11	22	m	29.810126582278482	79	158
Frame#	Time	Hip			RHip			RKnee			RAnkle			RBigToe			RSmallToe			RHeel			LHip			LKnee			LAnkle			LBigToe			LSmallToe			LHeel			Neck			Head			Nose			RShoulder			RElbow			RWrist			LShoulder			LElbow			LWrist		
		X1	Y1	Z1	X2	Y2	Z2	X3	Y3	Z3	X4	Y4	Z4	X5	Y5	Z5	X6	Y6	Z6	X7	Y7	Z7	X8	Y8	Z8	X9	Y9	Z9	X10	Y10	Z10	X11	Y11	Z11	X12	Y12	Z12	X13	Y13	Z13	X14	Y14	Z14	X15	Y15	Z15	X16	Y16	Z16	X17	Y17	Z17	X18	Y18	Z18	X19	Y19	Z19	X20	Y20	Z20	X21	Y21	Z21	X22	Y22	Z22
79	2.6501061571125266	0.955798600383125	-0.521937928027357	0.0	0.9577568717864972	-0.5208920845871509	0.0	0.9520365850754299	-0.6367107552325029	0.0	0.9145090277905286	-0.7470432695691147	0.0	0.9389715911520038	-0.7766722097251676	0.0	0.9310151375062159	-0.7783720329100173	0.0	0.9032497755189266	-0.7626586761622326	0.0	0.9482627127185896	-0.5182260242317528	0.0	0.9475977410479283	-0.6346680081305061	0.0	0.9160902449274849	-0.7389217022030232	0.0	0.946198612033607	-0.7668827089409741	0.0	0.9419163435439043	-0.7622678575217318	0.0	0.9014992542709565	-0.7511183948893334	0.0	0.9419287975328802	-0.37326779883320893	0.0	0.9546268992301719	-0.2989227436127364	0.0	0.9664165514137838	-0.3316127325112727	0.0	0.9461026332452565	-0.3807173480755569	0.0	0.9847306615636064	-0.31813093970302514	0.0	1.004248955449393	-0.2525001026848877	0.0	0.9287218583313037	-0.3822865924657462	0.0	0.9631832372456857	-0.3326575472333843	0.0	0.9716718570401561	-0.2905614225801855	0.0
80	2.683651804670913	0.9521641887980805	-0.5481363028668808	0.0	0.9527960280639326	-0.5471807275033502	0.0	0.9448762040388887	-0.6622936966437858	0.0	0.9055975620556507	-0.7695883191463492	0.0	0.930484939508352	-0.7955087237089222	0.0	0.9215216599659988	-0.7983259681860785	0.0	0.8940809908826163	-0.7850245381716995	0.0	0.9445555047923959	-0.5437683212755391	0.0	0.9412821009421504	-0.6597218331602446	0.0	0.9087618704498135	-0.7618152194053736	0.0	0.9419985758655525	-0.7864216080424784	0.0	0.9375887700053407	-0.7839521745237313	0.0	0.8939517225337121	-0.7748268230418097	0.0	0.9370307231753533	-0.3982726632321553	0.0	0.9486079773393459	-0.324724953898807	0.0	0.960930601251843	-0.35701447937685266	0.0	0.9421624049132835	-0.40475120132408504	0.0	0.9775354420869151	-0.33952409992598565	0.0	0.9911669741103311	-0.27350758227364086	0.0	0.9233519637082552	-0.40769468220368976	0.0	0.9500392462347055	-0.3596893470818737	0.0	0.9458130633220341	-0.33016323720698715	0.0
81	2.7171974522292994	0.9477334911171891	-0.574714051940635	0.0	0.9474103303102542	-0.573882594639436	0.0	0.938096817131173	-0.6880814928787247	0.0	0.8981701400213844	-0.7913061397196471	0.0	0.9231498808633093	-0.8135371114406686	0.0	0.9130781257676327	-0.8175372535723316	0.0	0.886591143838998	-0.8061714958905017	0.0	0.940419001654685	-0.569640784746258	0.0	0.9350065559259616	-0.6850230926400241	0.0	0.9022936979487649	-0.7843209232812561	0.0	0.937383191783987	-0.8054962257890707	0.0	0.9324576052048285	-0.8054974590252775	0.0	0.8874425920162257	-0.797563124015844	0.0	0.9330187430860155	-0.42386826324161375	0.0	0.9436254173927509	-0.35100372589594975	0.0	0.9567766484524467	-0.3831293456533791	0.0	0.938730911973922	-0.42936889985456	0.0	0.9708844364652108	-0.36216233911704887	0.0	0.9792315916020038	-0.29582909528731716	0.0	0.9194316077324914	-0.43334803024811835	0.0	0.9400264715457839	-0.38603086960015376	0.0	0.9240710818852965	-0.36857157661118206	0.0
82	2.7507430997876856	0.9428314452025723	-0.5995200483469517	0.0	0.9421157146872998	-0.5989066488599282	0.0	0.9319024298356425	-0.7120152324941321	0.0	0.8925156831907637	-0.8106394758823305	0.0	0.9174186974955364	-0.8297102105723817	0.0	0.9062426174542534	-0.8347514147409537	0.0	0.8812183907149899	-0.8244627296355741	0.0	0.9360490626387801	-0.5939991034209043	0.0	0.9292081531774989	-0.7086472941577326	0.0	0.8968405680359562	-0.8049432667675833	0.0	0.9323220494144154	-0.8231437315340513	0.0	0.9266737554822706	-0.825510110160803	0.0	0.8823111943596144	-0.8175955510969811	0.0	0.9300099187240658	-0.4483271507895294	0.0	0.9396339478707124	-0.37570718810864107	0.0	0.9538117697863535	-0.4079937976889227	0.0	0.9356148462502737	-0.45293909079093503	0.0	0.9651045845299457	-0.3844705407317205	0.0	0.9693076489481147	-0.3180147316812033	0.0	0.9170727077178703	-0.45755064503192366	0.0	0.9346727767666483	-0.408597359293006	0.0	0.9111320970042158	-0.398817555923347	0.0
83	2.7842887473460722	0.9380527251857605	-0.6202636783503931	0.0	0.9374400833878076	-0.6199486761431388	0.0	0.9265720210570899	-0.7318287372522999	0.0	0.8886678744342089	-0.8261617491829487	0.0	0.9137630964033567	-0.8429633139989994	0.0	0.9016557898135005	-0.8487478679622099	0.0	0.8779886897064786	-0.8386696150320647	0.0	0.9319138976725859	-0.6147121792205544	0.0	0.9243340513030804	-0.7284331380577007	0.0	0.8925981757704959	-0.8220011442424151	0.0	0.9275778774119768	-0.8380889346838002	0.0	0.9211704178659165	-0.8422095950150942	0.0	0.8787598570649838	-0.8334480007408775	0.0	0.9279830271347426	-0.46952401634255164	0.0	0.9366000488873911	-0.39661087930515443	0.0	0.9516328398009976	-0.42938773069158276	0.0	0.9326666369895441	-0.47350789312190167	0.0	0.9605185536021474	-0.40435748656718074	0.0	0.9621721752381017	-0.3381173597352431	0.0	0.9161036970198138	-0.47821408284246164	0.0	0.934037199809414	-0.42541383353880197	0.0	0.9085606538425156	-0.416578357078998	0.0
84	2.8178343949044584	0.9339841014636393	-0.6348562928455397	0.0	0.9338351968917376	-0.6347980420314924	0.0	0.9223812219943509	-0.7453907328325797	0.0	0.8864318248468704	-0.83675220555315	0.0	0.912274911854508	-0.8523147407192491	0.0	0.8996647447403737	-0.8584278682702954	0.0	0.876591900325999	-0.8480690771195606	0.0	0.9285385193119372	-0.629631321179564	0.0	0.9206782991649701	-0.7422845751661232	0.0	0.8897610020713379	-0.8338857102430648	0.0	0.9240488919296551	-0.8489171632690237	0.0	0.9170312394354164	-0.8537852154226385	0.0	0.8768319613317661	-0.8440319602874115	0.0	0.9268358357108111	-0.48521493264013316	0.0	0.934504090478114	-0.41156656745625275	0.0	0.9498342872039867	-0.44509310110001876	0.0	0.9299198169843031	-0.4890443761550821	0.0	0.9572522679364136	-0.4197063091088456	0.0	0.958174084234012	-0.35401689870688163	0.0	0.9162155403547273	-0.49317868844939006	0.0	0.9367855364363824	-0.43596309553468604	0.0	0.9147311457605588	-0.4210807148272153	0.0
85	2.851380042462845	0.9310132839098829	-0.641803997061507	0.0	0.9315504783666368	-0.6418134856222414	0.0	0.9194887361708005	-0.7511900232824238	0.0	0.8855058626645576	-0.841609110238695	0.0	0.9125547622928079	-0.8568982187981822	0.0	0.9000872763911836	-0.8628531890170739	0.0	0.876562294241085	-0.8522791431118631	0.0	0.9263692686831546	-0.6371106502732697	0.0	0.9182835096571711	-0.7486599130108673	0.0	0.8883300152711174	-0.8394255746479766	0.0	0.9221573711930829	-0.8544517199249583	0.0	0.9148905786273581	-0.8589485957299919	0.0	0.8763275360498987	-0.8486912394745848	0.0	0.9264386768960676	-0.49348531515426003	0.0	0.933233328482379	-0.418918889734576	0.0	0.9482624697734539	-0.4532623631147374	0.0	0.9276161153697445	-0.49774502702100865	0.0	0.9551666322792383	-0.42889422617219414	0.0	0.9570185522060087	-0.36412326475993345	0.0	0.9171140780207323	-0.5007478990876506	0.0	0.9412108469772921	-0.44053871629917957	0.0	0.9266035897702978	-0.4144961246934627	0.0
86	2.8849256900212312	0.929286323976308	-0.6404272429371223	0.0	0.9305798999995838	-0.6402500027229328	0.0	0.9179077210498571	-0.7486705675951848	0.0	0.8855493313967303	-0.8401747005635908	0.0	0.9139606090507265	-0.8560268660911944	0.0	0.902274011202501	-0.8613487284533154	0.0	0.877362948231946	-0.8510009558971294	0.0	0.9256168422766057	-0.6363484532648175	0.0	0.9170162638585618	-0.7468952479108927	0.0	0.8880586822799682	-0.8380327511946445	0.0	0.9217690330609923	-0.8539496145885698	0.0	0.914815722444076	-0.8571482590176789	0.0	0.8768307090213203	-0.84706424153149	0.0	0.9266395452270845	-0.4932231358373199	0.0	0.9326080227346051	-0.41789116185156044	0.0	0.9470823390388938	-0.4528419771077906	0.0	0.926085198546268	-0.498461000610932	0.0	0.953866486304469	-0.4311956653205291	0.0	0.9578246948224726	-0.36794285694377066	0.0	0.9184941933441415	-0.5001507519443852	0.0	0.9457950278917402	-0.44000185057391195	0.0	0.9405617676973203	-0.4018643905069651	0.0
87	2.918471337579618	0.9287130034545822	-0.6309540743647962	0.0	0.9307124151836641	-0.6304040542945129	0.0	0.9175899349781986	-0.7382821964005238	0.0	0.8862291876116347	-0.8322537934162401	0.0	0.9159155703419078	-0.8494484863707306	0.0	0.9053810581516034	-0.8537716522021892	0.0	0.878469045743902	-0.8440082183567778	0.0	0.9260884650232252	-0.6274871659099505	0.0	0.9167175492605885	-0.7372671640823871	0.0	0.8885918391043826	-0.8297121189447946	0.0	0.9224260661013476	-0.8471861501891899	0.0	0.9163713235593239	-0.8485374657252106	0.0	0.8778650961977935	-0.8390309485136237	0.0	0.9272823076718233	-0.48449752553728775	0.0	0.9325201281850307	-0.4087843794161253	0.0	0.9466325801520343	-0.4439614178231649	0.0	0.9255469026337423	-0.4911308760350192	0.0	0.9527757317150761	-0.42709339378274097	0.0	0.959442546289753	-0.3662831087184266	0.0	0.9199840207051772	-0.4917067919816884	0.0	0.9490803238326024	-0.43598695639207946	0.0	0.9533248080920087	-0.3889258428975554	0.0
88	2.952016985138004	0.929038424079804	-0.6145302616626875	0.0	0.9316158305431232	-0.613593541898488	0.0	0.9184857681553636	-0.7214148689575919	0.0	0.8873617613057038	-0.8183971874804056	0.0	0.9180876908899516	-0.8376752139383016	0.0	0.9087213781985114	-0.8408289555871157	0.0	0.8796042157845353	-0.8315249512709385	0.0	0.9272679462569554	-0.611580838876019	0.0	0.917276226889823	-0.7210010524616391	0.0	0.8896472612374671	-0.8152286217967294	0.0	0.923640401928488	-0.834716424903225	0.0	0.9187971860563925	-0.8341235028642537	0.0	0.8790645211786898	-0.8250656744212287	0.0	0.9282520724434644	-0.4685853578117265	0.0	0.9330444232579248	-0.3929167297192753	0.0	0.9472312126141202	-0.4280156817157484	0.0	0.9260238656322474	-0.476858640364879	0.0	0.951332519924252	-0.41825193052597326	0.0	0.9608667055136476	-0.3610575348910077	0.0	0.9212120140552313	-0.47664058835401124	0.0	0.9495038095289497	-0.4306780401616358	0.0	0.9627425150004015	-0.37927256183847285	0.0
89	2.9855626326963907	0.9299824885070339	-0.5930320201674523	0.0	0.9329380501076648	-0.5918869341478165	0.0	0.9205123410527377	-0.7001897509267319	0.0	0.8890628709172287	-0.8001100165887157	0.0	0.920439207749143	-0.822076514352476	0.0	0.9120118120804993	-0.8241431035539094	0.0	0.8809675555930059	-0.8145807051622431	0.0	0.9285959441280575	-0.5904390098264298	0.0	0.9186370860834079	-0.7001323156415414	0.0	0.891165354218808	-0.7962502731489574	0.0	0.9251741711964261	-0.8180701491093809	0.0	0.9214348006556639	-0.8158473061696332	0.0	0.8803446646511875	-0.8065942845678411	0.0	0.9294811375366999	-0.44760527357819085	0.0	0.9343903348298512	-0.37230861409578425	0.0	0.9490137588062135	-0.4072671773576027	0.0	0.9273690694167469	-0.4575732736384172	0.0	0.9491976184546467	-0.40701991538082893	0.0	0.9614535276302442	-0.3546464146375002	0.0	0.921945329532521	-0.4567757523115648	0.0	0.9457411104698356	-0.42597355749327	0.0	0.9675840591197149	-0.3738658815357577	0.0
